<svg xmlns="http://www.w3.org/2000/svg" version="1.1" xmlns:xlink="http://www.w3.org/1999/xlink" xmlns:svgjs="http://svgjs.com/svgjs" preserveAspectRatio="xMidYMid meet" viewBox="0 0 400 497.85625"><circle r="0" cx="400" cy="0" fill="none" stroke-width="0" stroke="transparent"></circle><circle r="0" cx="0" cy="0" fill="none" stroke-width="0" stroke="transparent"></circle><rect width="100%" height="100%" fill="none"></rect><text x="200" y="-0.28125" font-family="Arial, &quot;Helvetica Neue&quot;, Helvetica, sans-serif" font-size="48" text-anchor="middle" fill="#000000"><tspan dy="62.400000000000006" x="200">dorian6</tspan></text><line x1="65.6" y1="82.25625" x2="94.39999999999999" y2="111.05624999999999" stroke-width="2" stroke="#000000"></line><line x1="65.6" y1="111.05624999999999" x2="94.39999999999999" y2="82.25625" stroke-width="2" stroke="#000000"></line><line x1="79" y1="125.65625" x2="321" y2="125.65625" stroke-width="10" stroke="#000000"></line><line x1="80" y1="202.65625" x2="320" y2="202.65625" stroke-width="2" stroke="#000000"></line><line x1="80" y1="274.65625" x2="320" y2="274.65625" stroke-width="2" stroke="#000000"></line><line x1="80" y1="346.65625" x2="320" y2="346.65625" stroke-width="2" stroke="#000000"></line><line x1="80" y1="418.65625" x2="320" y2="418.65625" stroke-width="2" stroke="#000000"></line><line x1="80" y1="490.65625" x2="320" y2="490.65625" stroke-width="2" stroke="#000000"></line><line x1="80" y1="130.65625" x2="80" y2="491.65625" stroke-width="2" stroke="#000000"></line><line x1="128" y1="130.65625" x2="128" y2="491.65625" stroke-width="2" stroke="#000000"></line><line x1="176" y1="130.65625" x2="176" y2="491.65625" stroke-width="2" stroke="#000000"></line><line x1="224" y1="130.65625" x2="224" y2="491.65625" stroke-width="2" stroke="#000000"></line><line x1="272" y1="130.65625" x2="272" y2="491.65625" stroke-width="2" stroke="#000000"></line><line x1="320" y1="130.65625" x2="320" y2="491.65625" stroke-width="2" stroke="#000000"></line><circle r="15.600000000000001" cx="176" cy="166.65625" fill="#000000" stroke-width="0" stroke="#000000"></circle><circle r="15.600000000000001" cx="272" cy="166.65625" fill="rgba(208, 2, 27, 1)" stroke-width="0" stroke="rgba(208, 2, 27, 1)"></circle><circle r="15.600000000000001" cx="320" cy="166.65625" fill="#000000" stroke-width="0" stroke="#000000"></circle><circle r="15.600000000000001" cx="224" cy="238.65625" fill="#000000" stroke-width="0" stroke="#000000"></circle><circle r="15.600000000000001" cx="128" cy="310.65625" fill="rgba(208, 2, 27, 1)" stroke-width="0" stroke="rgba(208, 2, 27, 1)"></circle><circle r="15.600000000000001" cx="176" cy="310.65625" fill="#000000" stroke-width="0" stroke="#000000"></circle><circle r="15.600000000000001" cx="224" cy="310.65625" fill="#000000" stroke-width="0" stroke="#000000"></circle><circle r="15.600000000000001" cx="272" cy="310.65625" fill="#000000" stroke-width="0" stroke="#000000"></circle><circle r="15.600000000000001" cx="320" cy="310.65625" fill="#000000" stroke-width="0" stroke="#000000"></circle><circle r="15.600000000000001" cx="272" cy="382.65625" fill="#000000" stroke-width="0" stroke="#000000"></circle><circle r="15.600000000000001" cx="128" cy="454.65625" fill="#000000" stroke-width="0" stroke="#000000"></circle><circle r="15.600000000000001" cx="176" cy="454.65625" fill="#000000" stroke-width="0" stroke="#000000"></circle><circle r="15.600000000000001" cx="320" cy="454.65625" fill="#000000" stroke-width="0" stroke="#000000"></circle><text x="80" y="505.05625" font-family="Arial, &quot;Helvetica Neue&quot;, Helvetica, sans-serif" font-size="28" text-anchor="middle" fill="#000000"><tspan dy="27.3" x="80"></tspan></text><text x="128" y="505.05625" font-family="Arial, &quot;Helvetica Neue&quot;, Helvetica, sans-serif" font-size="28" text-anchor="middle" fill="#000000"><tspan dy="27.3" x="128"></tspan></text><text x="176" y="505.05625" font-family="Arial, &quot;Helvetica Neue&quot;, Helvetica, sans-serif" font-size="28" text-anchor="middle" fill="#000000"><tspan dy="27.3" x="176"></tspan></text><text x="224" y="505.05625" font-family="Arial, &quot;Helvetica Neue&quot;, Helvetica, sans-serif" font-size="28" text-anchor="middle" fill="#000000"><tspan dy="27.3" x="224"></tspan></text><text x="272" y="505.05625" font-family="Arial, &quot;Helvetica Neue&quot;, Helvetica, sans-serif" font-size="28" text-anchor="middle" fill="#000000"><tspan dy="27.3" x="272"></tspan></text><text x="320" y="505.05625" font-family="Arial, &quot;Helvetica Neue&quot;, Helvetica, sans-serif" font-size="28" text-anchor="middle" fill="#000000"><tspan dy="27.3" x="320"></tspan></text></svg>